# xmcd CD database generated by RipIT
#
# Track frame offsets:
# 150
# 16558
# 39412
# 54275
# 74630
# 101145
# 115999
# 135097
# 150652
# 172546
# 192058
# 212222
# 226525
# 250425
# 273942
# 292103
# 308873
# 329700
#
# Disc length: 4626 seconds
#
# Revision: 0
# Processed by: cddbd v1.5.2PL0 Copyright (c) Steve Scherf et al.
# Submitted via: RipIT 3.9.0 www.suwald.com/ripit/ripit.html on 2014-10-12 at 23:52
#
DISCID=f3121012
DTITLE=Arne Dahl - Bussestunde CD5
DYEAR=2013
DGENRE=Speech
TTITLE0=501
TTITLE1=502
TTITLE2=503
TTITLE3=504
TTITLE4=505
TTITLE5=506
TTITLE6=507
TTITLE7=508
TTITLE8=509
TTITLE9=510
TTITLE10=511
TTITLE11=512
TTITLE12=513
TTITLE13=514
TTITLE14=515
TTITLE15=516
TTITLE16=517
TTITLE17=518
EXTD=
EXTT0=
EXTT1=
EXTT2=
EXTT3=
EXTT4=
EXTT5=
EXTT6=
EXTT7=
EXTT8=
EXTT9=
EXTT10=
EXTT11=
EXTT12=
EXTT13=
EXTT14=
EXTT15=
EXTT16=
EXTT17=
PLAYORDER=
